<svg width="494" height="136" viewBox="0 0 494 136" fill="none" xmlns="http://www.w3.org/2000/svg">
<rect x="7.62939e-06" y="0.00012207" width="494" height="136" rx="10" fill="black"/>
<path d="M67.483 73.5967V68.6876L90.8011 57.9149V63.966L74.233 71.074L74.4205 70.7501V71.5342L74.233 71.2103L90.8011 78.3183V84.3694L67.483 73.5967ZM409.504 73.5967L386.186 84.3694V78.3183L402.754 71.2103L402.567 71.5342V70.7501L402.754 71.074L386.186 63.966V57.9149L409.504 68.6876V73.5967Z" fill="#23CE6B"/>
<path d="M103.871 85.0001L96.473 58.8183H102.763L107.365 77.2274H107.604L112.308 58.8183H118.53L123.234 77.1251H123.49L128.024 58.8183H134.331L126.916 85.0001H120.49L115.581 67.3069H115.223L110.314 85.0001H103.871ZM149.48 85.5115C146.855 85.5115 144.588 84.966 142.679 83.8751C140.781 82.7728 139.321 81.216 138.298 79.2047C137.276 77.1819 136.764 74.8013 136.764 72.0626C136.764 69.3694 137.276 67.0058 138.298 64.9717C139.332 62.9263 140.776 61.3353 142.628 60.199C144.48 59.0513 146.656 58.4774 149.156 58.4774C150.77 58.4774 152.293 58.7388 153.724 59.2615C155.168 59.7728 156.44 60.5683 157.543 61.6478C158.656 62.7274 159.531 64.1024 160.168 65.7728C160.804 67.4319 161.122 69.4092 161.122 71.7047V73.5967H139.662V69.4376H155.207C155.196 68.2558 154.94 67.2047 154.44 66.2842C153.94 65.3524 153.241 64.6194 152.344 64.0853C151.457 63.5513 150.423 63.2842 149.241 63.2842C147.98 63.2842 146.872 63.591 145.918 64.2047C144.963 64.8069 144.219 65.6024 143.685 66.591C143.162 67.5683 142.895 68.6422 142.884 69.8126V73.4433C142.884 74.966 143.162 76.2728 143.719 77.3638C144.276 78.4433 145.054 79.2728 146.054 79.8524C147.054 80.4206 148.224 80.7047 149.565 80.7047C150.463 80.7047 151.276 80.5797 152.003 80.3297C152.73 80.0683 153.361 79.6876 153.895 79.1876C154.429 78.6876 154.832 78.0683 155.105 77.3297L160.866 77.9774C160.503 79.5001 159.81 80.8297 158.787 81.966C157.776 83.091 156.48 83.966 154.901 84.591C153.321 85.2047 151.514 85.5115 149.48 85.5115ZM166.615 85.0001V50.091H172.786V63.1478H173.041C173.359 62.5115 173.808 61.8353 174.388 61.1194C174.967 60.3922 175.751 59.7728 176.74 59.2615C177.729 58.7388 178.99 58.4774 180.524 58.4774C182.547 58.4774 184.371 58.9944 185.996 60.0285C187.632 61.0513 188.928 62.5683 189.882 64.5797C190.848 66.5797 191.331 69.0342 191.331 71.9433C191.331 74.8183 190.859 77.2615 189.916 79.2728C188.973 81.2842 187.689 82.8183 186.064 83.8751C184.439 84.9319 182.598 85.4603 180.541 85.4603C179.041 85.4603 177.797 85.2103 176.808 84.7103C175.82 84.2103 175.024 83.6081 174.422 82.9035C173.831 82.1876 173.371 81.5115 173.041 80.8751H172.683V85.0001H166.615ZM172.666 71.9092C172.666 73.6024 172.905 75.0853 173.382 76.3581C173.871 77.6308 174.57 78.6251 175.479 79.341C176.399 80.0456 177.513 80.3978 178.82 80.3978C180.183 80.3978 181.325 80.0342 182.246 79.3069C183.166 78.5683 183.859 77.5626 184.325 76.2899C184.803 75.0058 185.041 73.5456 185.041 71.9092C185.041 70.2842 184.808 68.841 184.342 67.5797C183.876 66.3183 183.183 65.3297 182.263 64.6138C181.342 63.8978 180.195 63.5399 178.82 63.5399C177.501 63.5399 176.382 63.8865 175.462 64.5797C174.541 65.2728 173.842 66.2444 173.365 67.4944C172.899 68.7444 172.666 70.216 172.666 71.9092ZM219.072 58.8183L209.749 85.0001H202.93L193.607 58.8183H200.186L206.203 78.2672H206.476L212.51 58.8183H219.072ZM234.043 85.5115C231.418 85.5115 229.151 84.966 227.241 83.8751C225.344 82.7728 223.884 81.216 222.861 79.2047C221.838 77.1819 221.327 74.8013 221.327 72.0626C221.327 69.3694 221.838 67.0058 222.861 64.9717C223.895 62.9263 225.338 61.3353 227.19 60.199C229.043 59.0513 231.219 58.4774 233.719 58.4774C235.332 58.4774 236.855 58.7388 238.287 59.2615C239.73 59.7728 241.003 60.5683 242.105 61.6478C243.219 62.7274 244.094 64.1024 244.73 65.7728C245.366 67.4319 245.685 69.4092 245.685 71.7047V73.5967H224.224V69.4376H239.77C239.759 68.2558 239.503 67.2047 239.003 66.2842C238.503 65.3524 237.804 64.6194 236.906 64.0853C236.02 63.5513 234.986 63.2842 233.804 63.2842C232.543 63.2842 231.435 63.591 230.48 64.2047C229.526 64.8069 228.781 65.6024 228.247 66.591C227.724 67.5683 227.457 68.6422 227.446 69.8126V73.4433C227.446 74.966 227.724 76.2728 228.281 77.3638C228.838 78.4433 229.616 79.2728 230.616 79.8524C231.616 80.4206 232.787 80.7047 234.128 80.7047C235.026 80.7047 235.838 80.5797 236.565 80.3297C237.293 80.0683 237.923 79.6876 238.457 79.1876C238.991 78.6876 239.395 78.0683 239.668 77.3297L245.429 77.9774C245.065 79.5001 244.372 80.8297 243.349 81.966C242.338 83.091 241.043 83.966 239.463 84.591C237.884 85.2047 236.077 85.5115 234.043 85.5115ZM257.075 69.6592V85.0001H250.905V58.8183H256.803V63.2672H257.109C257.712 61.8013 258.672 60.6365 259.99 59.7728C261.32 58.9092 262.962 58.4774 264.916 58.4774C266.723 58.4774 268.297 58.8638 269.638 59.6365C270.99 60.4092 272.035 61.5285 272.774 62.9944C273.524 64.4603 273.893 66.2388 273.882 68.3297V85.0001H267.712V69.2842C267.712 67.5342 267.257 66.1649 266.348 65.1763C265.45 64.1876 264.206 63.6933 262.615 63.6933C261.535 63.6933 260.575 63.9319 259.734 64.4092C258.905 64.8751 258.251 65.5513 257.774 66.4376C257.308 67.324 257.075 68.3978 257.075 69.6592ZM293.229 58.8183V63.591H278.178V58.8183H293.229ZM281.893 52.5456H288.064V77.1251C288.064 77.9547 288.189 78.591 288.439 79.0342C288.7 79.466 289.041 79.7615 289.462 79.9206C289.882 80.0797 290.348 80.1592 290.859 80.1592C291.246 80.1592 291.598 80.1308 291.916 80.074C292.246 80.0172 292.496 79.966 292.666 79.9206L293.706 84.7444C293.376 84.8581 292.905 84.9831 292.291 85.1194C291.689 85.2558 290.95 85.3353 290.075 85.3581C288.53 85.4035 287.138 85.1706 285.899 84.6592C284.66 84.1365 283.678 83.3297 282.95 82.2388C282.234 81.1478 281.882 79.7842 281.893 78.1478V52.5456ZM305.923 85.5285C304.264 85.5285 302.77 85.2331 301.44 84.6422C300.122 84.0399 299.077 83.1535 298.304 81.9831C297.543 80.8126 297.162 79.3694 297.162 77.6535C297.162 76.1763 297.435 74.9547 297.98 73.9888C298.526 73.0228 299.27 72.2501 300.213 71.6706C301.156 71.091 302.219 70.6535 303.401 70.3581C304.594 70.0513 305.827 69.8297 307.099 69.6933C308.634 69.5342 309.878 69.3922 310.832 69.2672C311.787 69.1308 312.48 68.9263 312.912 68.6535C313.355 68.3694 313.577 67.9319 313.577 67.341V67.2388C313.577 65.9547 313.196 64.9603 312.435 64.2558C311.673 63.5513 310.577 63.199 309.145 63.199C307.634 63.199 306.435 63.5285 305.548 64.1876C304.673 64.8467 304.082 65.6251 303.776 66.5228L298.014 65.7047C298.469 64.1138 299.219 62.7842 300.264 61.716C301.31 60.6365 302.588 59.8297 304.099 59.2956C305.611 58.7501 307.281 58.4774 309.111 58.4774C310.372 58.4774 311.628 58.6251 312.878 58.9206C314.128 59.216 315.27 59.7047 316.304 60.3865C317.338 61.0569 318.168 61.9717 318.793 63.1308C319.429 64.2899 319.747 65.7388 319.747 67.4774V85.0001H313.815V81.4035H313.611C313.236 82.1308 312.707 82.8126 312.026 83.449C311.355 84.074 310.509 84.5797 309.486 84.966C308.474 85.341 307.287 85.5285 305.923 85.5285ZM307.526 80.9944C308.764 80.9944 309.838 80.7501 310.747 80.2615C311.656 79.7615 312.355 79.1024 312.844 78.2842C313.344 77.466 313.594 76.574 313.594 75.6081V72.5228C313.401 72.6819 313.071 72.8297 312.605 72.966C312.151 73.1024 311.639 73.2217 311.071 73.324C310.503 73.4263 309.94 73.5172 309.384 73.5967C308.827 73.6763 308.344 73.7444 307.935 73.8013C307.014 73.9263 306.19 74.1308 305.463 74.4149C304.736 74.699 304.162 75.0967 303.741 75.6081C303.321 76.1081 303.111 76.7558 303.111 77.5513C303.111 78.6876 303.526 79.5456 304.355 80.1251C305.185 80.7047 306.241 80.9944 307.526 80.9944ZM325.952 85.0001V58.8183H332.122V85.0001H325.952ZM329.054 55.1024C328.077 55.1024 327.236 54.7785 326.531 54.1308C325.827 53.4717 325.474 52.6819 325.474 51.7615C325.474 50.8297 325.827 50.0399 326.531 49.3922C327.236 48.7331 328.077 48.4035 329.054 48.4035C330.043 48.4035 330.884 48.7331 331.577 49.3922C332.281 50.0399 332.634 50.8297 332.634 51.7615C332.634 52.6819 332.281 53.4717 331.577 54.1308C330.884 54.7785 330.043 55.1024 329.054 55.1024ZM338.467 85.0001V58.8183H344.45V63.1819H344.723C345.2 61.6706 346.018 60.5058 347.178 59.6876C348.348 58.8581 349.683 58.4433 351.183 58.4433C351.524 58.4433 351.905 58.4603 352.325 58.4944C352.757 58.5172 353.115 58.5569 353.399 58.6138V64.2899C353.138 64.199 352.723 64.1194 352.155 64.0513C351.598 63.9717 351.058 63.9319 350.535 63.9319C349.41 63.9319 348.399 64.1763 347.501 64.6649C346.615 65.1422 345.916 65.8069 345.405 66.6592C344.893 67.5115 344.638 68.4944 344.638 69.6081V85.0001H338.467ZM368.011 85.5115C365.386 85.5115 363.119 84.966 361.21 83.8751C359.312 82.7728 357.852 81.216 356.83 79.2047C355.807 77.1819 355.295 74.8013 355.295 72.0626C355.295 69.3694 355.807 67.0058 356.83 64.9717C357.864 62.9263 359.307 61.3353 361.159 60.199C363.011 59.0513 365.187 58.4774 367.687 58.4774C369.301 58.4774 370.824 58.7388 372.256 59.2615C373.699 59.7728 374.972 60.5683 376.074 61.6478C377.187 62.7274 378.062 64.1024 378.699 65.7728C379.335 67.4319 379.653 69.4092 379.653 71.7047V73.5967H358.193V69.4376H373.739C373.727 68.2558 373.472 67.2047 372.972 66.2842C372.472 65.3524 371.773 64.6194 370.875 64.0853C369.989 63.5513 368.955 63.2842 367.773 63.2842C366.511 63.2842 365.403 63.591 364.449 64.2047C363.494 64.8069 362.75 65.6024 362.216 66.591C361.693 67.5683 361.426 68.6422 361.415 69.8126V73.4433C361.415 74.966 361.693 76.2728 362.25 77.3638C362.807 78.4433 363.585 79.2728 364.585 79.8524C365.585 80.4206 366.756 80.7047 368.097 80.7047C368.994 80.7047 369.807 80.5797 370.534 80.3297C371.261 80.0683 371.892 79.6876 372.426 79.1876C372.96 78.6876 373.364 78.0683 373.636 77.3297L379.398 77.9774C379.034 79.5001 378.341 80.8297 377.318 81.966C376.307 83.091 375.011 83.966 373.432 84.591C371.852 85.2047 370.045 85.5115 368.011 85.5115Z" fill="#F5F5F5"/>
</svg>
