<svg width="508" height="246" viewBox="0 0 508 246" fill="none" xmlns="http://www.w3.org/2000/svg">
<rect x="7.62939e-06" y="0.00012207" width="508" height="246" rx="10" fill="black"/>
<path d="M88.483 123.597V118.687L111.801 107.915V113.966L95.233 121.074L95.4205 120.75V121.534L95.233 121.21L111.801 128.318V134.369L88.483 123.597ZM430.504 123.597L407.186 134.369V128.318L423.754 121.21L423.567 121.534V120.75L423.754 121.074L407.186 113.966V107.915L430.504 118.687V123.597Z" fill="#23CE6B"/>
<path d="M124.871 135L117.473 108.818H123.763L128.365 127.227H128.604L133.308 108.818H139.53L144.234 127.125H144.49L149.024 108.818H155.331L147.916 135H141.49L136.581 117.307H136.223L131.314 135H124.871ZM170.48 135.511C167.855 135.511 165.588 134.966 163.679 133.875C161.781 132.773 160.321 131.216 159.298 129.205C158.276 127.182 157.764 124.801 157.764 122.062C157.764 119.369 158.276 117.006 159.298 114.972C160.332 112.926 161.776 111.335 163.628 110.199C165.48 109.051 167.656 108.477 170.156 108.477C171.77 108.477 173.293 108.739 174.724 109.261C176.168 109.773 177.44 110.568 178.543 111.648C179.656 112.727 180.531 114.102 181.168 115.773C181.804 117.432 182.122 119.409 182.122 121.705V123.597H160.662V119.437H176.207C176.196 118.256 175.94 117.205 175.44 116.284C174.94 115.352 174.241 114.619 173.344 114.085C172.457 113.551 171.423 113.284 170.241 113.284C168.98 113.284 167.872 113.591 166.918 114.205C165.963 114.807 165.219 115.602 164.685 116.591C164.162 117.568 163.895 118.642 163.884 119.812V123.443C163.884 124.966 164.162 126.273 164.719 127.364C165.276 128.443 166.054 129.273 167.054 129.852C168.054 130.42 169.224 130.705 170.565 130.705C171.463 130.705 172.276 130.58 173.003 130.33C173.73 130.068 174.361 129.687 174.895 129.187C175.429 128.687 175.832 128.068 176.105 127.33L181.866 127.977C181.503 129.5 180.81 130.83 179.787 131.966C178.776 133.091 177.48 133.966 175.901 134.591C174.321 135.205 172.514 135.511 170.48 135.511ZM187.615 135V100.091H193.786V113.148H194.041C194.359 112.511 194.808 111.835 195.388 111.119C195.967 110.392 196.751 109.773 197.74 109.261C198.729 108.739 199.99 108.477 201.524 108.477C203.547 108.477 205.371 108.994 206.996 110.028C208.632 111.051 209.928 112.568 210.882 114.58C211.848 116.58 212.331 119.034 212.331 121.943C212.331 124.818 211.859 127.261 210.916 129.273C209.973 131.284 208.689 132.818 207.064 133.875C205.439 134.932 203.598 135.46 201.541 135.46C200.041 135.46 198.797 135.21 197.808 134.71C196.82 134.21 196.024 133.608 195.422 132.903C194.831 132.187 194.371 131.511 194.041 130.875H193.683V135H187.615ZM193.666 121.909C193.666 123.602 193.905 125.085 194.382 126.358C194.871 127.631 195.57 128.625 196.479 129.341C197.399 130.045 198.513 130.398 199.82 130.398C201.183 130.398 202.325 130.034 203.246 129.307C204.166 128.568 204.859 127.562 205.325 126.29C205.803 125.006 206.041 123.545 206.041 121.909C206.041 120.284 205.808 118.841 205.342 117.58C204.876 116.318 204.183 115.33 203.263 114.614C202.342 113.898 201.195 113.54 199.82 113.54C198.501 113.54 197.382 113.886 196.462 114.58C195.541 115.273 194.842 116.244 194.365 117.494C193.899 118.744 193.666 120.216 193.666 121.909ZM240.072 108.818L230.749 135H223.93L214.607 108.818H221.186L227.203 128.267H227.476L233.51 108.818H240.072ZM255.043 135.511C252.418 135.511 250.151 134.966 248.241 133.875C246.344 132.773 244.884 131.216 243.861 129.205C242.838 127.182 242.327 124.801 242.327 122.062C242.327 119.369 242.838 117.006 243.861 114.972C244.895 112.926 246.338 111.335 248.19 110.199C250.043 109.051 252.219 108.477 254.719 108.477C256.332 108.477 257.855 108.739 259.287 109.261C260.73 109.773 262.003 110.568 263.105 111.648C264.219 112.727 265.094 114.102 265.73 115.773C266.366 117.432 266.685 119.409 266.685 121.705V123.597H245.224V119.437H260.77C260.759 118.256 260.503 117.205 260.003 116.284C259.503 115.352 258.804 114.619 257.906 114.085C257.02 113.551 255.986 113.284 254.804 113.284C253.543 113.284 252.435 113.591 251.48 114.205C250.526 114.807 249.781 115.602 249.247 116.591C248.724 117.568 248.457 118.642 248.446 119.812V123.443C248.446 124.966 248.724 126.273 249.281 127.364C249.838 128.443 250.616 129.273 251.616 129.852C252.616 130.42 253.787 130.705 255.128 130.705C256.026 130.705 256.838 130.58 257.565 130.33C258.293 130.068 258.923 129.687 259.457 129.187C259.991 128.687 260.395 128.068 260.668 127.33L266.429 127.977C266.065 129.5 265.372 130.83 264.349 131.966C263.338 133.091 262.043 133.966 260.463 134.591C258.884 135.205 257.077 135.511 255.043 135.511ZM278.075 119.659V135H271.905V108.818H277.803V113.267H278.109C278.712 111.801 279.672 110.636 280.99 109.773C282.32 108.909 283.962 108.477 285.916 108.477C287.723 108.477 289.297 108.864 290.638 109.636C291.99 110.409 293.035 111.528 293.774 112.994C294.524 114.46 294.893 116.239 294.882 118.33V135H288.712V119.284C288.712 117.534 288.257 116.165 287.348 115.176C286.45 114.187 285.206 113.693 283.615 113.693C282.535 113.693 281.575 113.932 280.734 114.409C279.905 114.875 279.251 115.551 278.774 116.437C278.308 117.324 278.075 118.398 278.075 119.659ZM314.229 108.818V113.591H299.178V108.818H314.229ZM302.893 102.545H309.064V127.125C309.064 127.955 309.189 128.591 309.439 129.034C309.7 129.466 310.041 129.761 310.462 129.92C310.882 130.08 311.348 130.159 311.859 130.159C312.246 130.159 312.598 130.131 312.916 130.074C313.246 130.017 313.496 129.966 313.666 129.92L314.706 134.744C314.376 134.858 313.905 134.983 313.291 135.119C312.689 135.256 311.95 135.335 311.075 135.358C309.53 135.403 308.138 135.17 306.899 134.659C305.66 134.136 304.678 133.33 303.95 132.239C303.234 131.148 302.882 129.784 302.893 128.148V102.545ZM326.923 135.528C325.264 135.528 323.77 135.233 322.44 134.642C321.122 134.04 320.077 133.153 319.304 131.983C318.543 130.812 318.162 129.369 318.162 127.653C318.162 126.176 318.435 124.955 318.98 123.989C319.526 123.023 320.27 122.25 321.213 121.67C322.156 121.091 323.219 120.653 324.401 120.358C325.594 120.051 326.827 119.83 328.099 119.693C329.634 119.534 330.878 119.392 331.832 119.267C332.787 119.131 333.48 118.926 333.912 118.653C334.355 118.369 334.577 117.932 334.577 117.341V117.239C334.577 115.955 334.196 114.96 333.435 114.256C332.673 113.551 331.577 113.199 330.145 113.199C328.634 113.199 327.435 113.528 326.548 114.187C325.673 114.847 325.082 115.625 324.776 116.523L319.014 115.705C319.469 114.114 320.219 112.784 321.264 111.716C322.31 110.636 323.588 109.83 325.099 109.295C326.611 108.75 328.281 108.477 330.111 108.477C331.372 108.477 332.628 108.625 333.878 108.92C335.128 109.216 336.27 109.705 337.304 110.386C338.338 111.057 339.168 111.972 339.793 113.131C340.429 114.29 340.747 115.739 340.747 117.477V135H334.815V131.403H334.611C334.236 132.131 333.707 132.812 333.026 133.449C332.355 134.074 331.509 134.58 330.486 134.966C329.474 135.341 328.287 135.528 326.923 135.528ZM328.526 130.994C329.764 130.994 330.838 130.75 331.747 130.261C332.656 129.761 333.355 129.102 333.844 128.284C334.344 127.466 334.594 126.574 334.594 125.608V122.523C334.401 122.682 334.071 122.83 333.605 122.966C333.151 123.102 332.639 123.222 332.071 123.324C331.503 123.426 330.94 123.517 330.384 123.597C329.827 123.676 329.344 123.744 328.935 123.801C328.014 123.926 327.19 124.131 326.463 124.415C325.736 124.699 325.162 125.097 324.741 125.608C324.321 126.108 324.111 126.756 324.111 127.551C324.111 128.687 324.526 129.545 325.355 130.125C326.185 130.705 327.241 130.994 328.526 130.994ZM346.952 135V108.818H353.122V135H346.952ZM350.054 105.102C349.077 105.102 348.236 104.778 347.531 104.131C346.827 103.472 346.474 102.682 346.474 101.761C346.474 100.83 346.827 100.04 347.531 99.392C348.236 98.733 349.077 98.4034 350.054 98.4034C351.043 98.4034 351.884 98.733 352.577 99.392C353.281 100.04 353.634 100.83 353.634 101.761C353.634 102.682 353.281 103.472 352.577 104.131C351.884 104.778 351.043 105.102 350.054 105.102ZM359.467 135V108.818H365.45V113.182H365.723C366.2 111.67 367.018 110.506 368.178 109.687C369.348 108.858 370.683 108.443 372.183 108.443C372.524 108.443 372.905 108.46 373.325 108.494C373.757 108.517 374.115 108.557 374.399 108.614V114.29C374.138 114.199 373.723 114.119 373.155 114.051C372.598 113.972 372.058 113.932 371.535 113.932C370.41 113.932 369.399 114.176 368.501 114.665C367.615 115.142 366.916 115.807 366.405 116.659C365.893 117.511 365.638 118.494 365.638 119.608V135H359.467ZM389.011 135.511C386.386 135.511 384.119 134.966 382.21 133.875C380.312 132.773 378.852 131.216 377.83 129.205C376.807 127.182 376.295 124.801 376.295 122.062C376.295 119.369 376.807 117.006 377.83 114.972C378.864 112.926 380.307 111.335 382.159 110.199C384.011 109.051 386.187 108.477 388.687 108.477C390.301 108.477 391.824 108.739 393.256 109.261C394.699 109.773 395.972 110.568 397.074 111.648C398.187 112.727 399.062 114.102 399.699 115.773C400.335 117.432 400.653 119.409 400.653 121.705V123.597H379.193V119.437H394.739C394.727 118.256 394.472 117.205 393.972 116.284C393.472 115.352 392.773 114.619 391.875 114.085C390.989 113.551 389.955 113.284 388.773 113.284C387.511 113.284 386.403 113.591 385.449 114.205C384.494 114.807 383.75 115.602 383.216 116.591C382.693 117.568 382.426 118.642 382.415 119.812V123.443C382.415 124.966 382.693 126.273 383.25 127.364C383.807 128.443 384.585 129.273 385.585 129.852C386.585 130.42 387.756 130.705 389.097 130.705C389.994 130.705 390.807 130.58 391.534 130.33C392.261 130.068 392.892 129.687 393.426 129.187C393.96 128.687 394.364 128.068 394.636 127.33L400.398 127.977C400.034 129.5 399.341 130.83 398.318 131.966C397.307 133.091 396.011 133.966 394.432 134.591C392.852 135.205 391.045 135.511 389.011 135.511Z" fill="#F5F5F5"/>
</svg>
